<svg xmlns="http://www.w3.org/2000/svg" xmlns:xlink="http://www.w3.org/1999/xlink" width="152" zoomAndPan="magnify" viewBox="0 0 114 72.749999" height="97" preserveAspectRatio="xMidYMid meet" version="1.0"><defs><g/></defs><g fill="#116de8" fill-opacity="1"><g transform="translate(12.77735, 51.099784)"><g><path d="M 21.03125 -3.953125 L 1.71875 -12.46875 L 1.71875 -15.265625 L 21.03125 -24.90625 L 21.03125 -20.234375 L 7.734375 -14.078125 L 21.03125 -8.609375 Z M 21.03125 -3.953125 "/></g></g></g><g fill="#116de8" fill-opacity="1"><g transform="translate(35.73751, 51.099784)"><g/></g></g><g fill="#116de8" fill-opacity="1"><g transform="translate(46.290854, 51.099784)"><g/></g></g><g fill="#116de8" fill-opacity="1"><g transform="translate(56.844198, 51.099784)"><g/></g></g><g fill="#116de8" fill-opacity="1"><g transform="translate(67.397542, 51.099784)"><g/></g></g><g fill="#116de8" fill-opacity="1"><g transform="translate(77.95571, 51.099784)"><g><path d="M 1.71875 -8.609375 L 15.03125 -14.078125 L 1.71875 -20.234375 L 1.71875 -24.90625 L 21.03125 -15.265625 L 21.03125 -12.46875 L 1.71875 -3.953125 Z M 1.71875 -8.609375 "/></g></g></g><g fill="#116de8" fill-opacity="1"><g transform="translate(34.811593, 34.207833)"><g><path d="M 6.75 -2.390625 C 7.320312 -2.390625 8.007812 -2.515625 8.8125 -2.765625 L 8.8125 -0.328125 C 8 0.0351562 7 0.21875 5.8125 0.21875 C 4.507812 0.21875 3.554688 -0.109375 2.953125 -0.765625 C 2.359375 -1.429688 2.0625 -2.425781 2.0625 -3.75 L 2.0625 -9.515625 L 0.5 -9.515625 L 0.5 -10.890625 L 2.296875 -11.984375 L 3.25 -14.515625 L 5.328125 -14.515625 L 5.328125 -11.96875 L 8.6875 -11.96875 L 8.6875 -9.515625 L 5.328125 -9.515625 L 5.328125 -3.75 C 5.328125 -3.28125 5.457031 -2.9375 5.71875 -2.71875 C 5.976562 -2.5 6.320312 -2.390625 6.75 -2.390625 Z M 6.75 -2.390625 "/></g></g></g><g fill="#116de8" fill-opacity="1"><g transform="translate(44.327008, 34.207833)"><g><path d="M 1.578125 -15.0625 C 1.578125 -16.125 2.164062 -16.65625 3.34375 -16.65625 C 4.53125 -16.65625 5.125 -16.125 5.125 -15.0625 C 5.125 -14.550781 4.972656 -14.15625 4.671875 -13.875 C 4.378906 -13.59375 3.9375 -13.453125 3.34375 -13.453125 C 2.164062 -13.453125 1.578125 -13.988281 1.578125 -15.0625 Z M 4.984375 0 L 1.71875 0 L 1.71875 -11.96875 L 4.984375 -11.96875 Z M 4.984375 0 "/></g></g></g><g fill="#116de8" fill-opacity="1"><g transform="translate(51.0167, 34.207833)"><g><path d="M 9.3125 0 L 8.6875 -1.625 L 8.59375 -1.625 C 8.039062 -0.9375 7.472656 -0.457031 6.890625 -0.1875 C 6.316406 0.0820312 5.5625 0.21875 4.625 0.21875 C 3.476562 0.21875 2.570312 -0.109375 1.90625 -0.765625 C 1.25 -1.421875 0.921875 -2.359375 0.921875 -3.578125 C 0.921875 -4.847656 1.363281 -5.785156 2.25 -6.390625 C 3.132812 -6.992188 4.472656 -7.328125 6.265625 -7.390625 L 8.34375 -7.453125 L 8.34375 -7.96875 C 8.34375 -9.1875 7.722656 -9.796875 6.484375 -9.796875 C 5.523438 -9.796875 4.398438 -9.503906 3.109375 -8.921875 L 2.03125 -11.125 C 3.40625 -11.851562 4.929688 -12.21875 6.609375 -12.21875 C 8.222656 -12.21875 9.457031 -11.863281 10.3125 -11.15625 C 11.164062 -10.457031 11.59375 -9.394531 11.59375 -7.96875 L 11.59375 0 Z M 8.34375 -5.546875 L 7.09375 -5.5 C 6.132812 -5.46875 5.421875 -5.296875 4.953125 -4.984375 C 4.492188 -4.671875 4.265625 -4.191406 4.265625 -3.546875 C 4.265625 -2.628906 4.796875 -2.171875 5.859375 -2.171875 C 6.609375 -2.171875 7.207031 -2.390625 7.65625 -2.828125 C 8.113281 -3.265625 8.34375 -3.84375 8.34375 -4.5625 Z M 8.34375 -5.546875 "/></g></g></g><g fill="#116de8" fill-opacity="1"><g transform="translate(64.256933, 34.207833)"><g><path d="M 12.765625 0 L 9.5 0 L 9.5 -6.984375 C 9.5 -7.847656 9.34375 -8.492188 9.03125 -8.921875 C 8.726562 -9.359375 8.238281 -9.578125 7.5625 -9.578125 C 6.65625 -9.578125 6 -9.269531 5.59375 -8.65625 C 5.1875 -8.050781 4.984375 -7.039062 4.984375 -5.625 L 4.984375 0 L 1.71875 0 L 1.71875 -11.96875 L 4.203125 -11.96875 L 4.640625 -10.4375 L 4.828125 -10.4375 C 5.191406 -11.007812 5.691406 -11.441406 6.328125 -11.734375 C 6.972656 -12.035156 7.703125 -12.1875 8.515625 -12.1875 C 9.898438 -12.1875 10.953125 -11.8125 11.671875 -11.0625 C 12.398438 -10.3125 12.765625 -9.222656 12.765625 -7.796875 Z M 12.765625 0 "/></g></g></g><g fill="#ffde59" fill-opacity="1"><g transform="translate(34.24226, 49.668555)"><g><path d="M 5.71875 0.1875 C 2.476562 0.1875 0.859375 -1.59375 0.859375 -5.15625 C 0.859375 -6.925781 1.296875 -8.28125 2.171875 -9.21875 C 3.054688 -10.15625 4.320312 -10.625 5.96875 -10.625 C 7.175781 -10.625 8.257812 -10.382812 9.21875 -9.90625 L 8.375 -7.703125 C 7.925781 -7.890625 7.507812 -8.039062 7.125 -8.15625 C 6.738281 -8.269531 6.351562 -8.328125 5.96875 -8.328125 C 4.488281 -8.328125 3.75 -7.273438 3.75 -5.171875 C 3.75 -3.128906 4.488281 -2.109375 5.96875 -2.109375 C 6.519531 -2.109375 7.023438 -2.179688 7.484375 -2.328125 C 7.953125 -2.472656 8.421875 -2.703125 8.890625 -3.015625 L 8.890625 -0.59375 C 8.429688 -0.300781 7.96875 -0.0976562 7.5 0.015625 C 7.03125 0.128906 6.4375 0.1875 5.71875 0.1875 Z M 5.71875 0.1875 "/></g></g></g><g fill="#ffde59" fill-opacity="1"><g transform="translate(44.053907, 49.668555)"><g><path d="M 3.75 -5.234375 C 3.75 -4.203125 3.921875 -3.421875 4.265625 -2.890625 C 4.609375 -2.359375 5.160156 -2.09375 5.921875 -2.09375 C 6.679688 -2.09375 7.226562 -2.351562 7.5625 -2.875 C 7.894531 -3.40625 8.0625 -4.191406 8.0625 -5.234375 C 8.0625 -6.265625 7.890625 -7.035156 7.546875 -7.546875 C 7.210938 -8.066406 6.664062 -8.328125 5.90625 -8.328125 C 5.144531 -8.328125 4.59375 -8.066406 4.25 -7.546875 C 3.914062 -7.035156 3.75 -6.265625 3.75 -5.234375 Z M 10.96875 -5.234375 C 10.96875 -3.535156 10.519531 -2.207031 9.625 -1.25 C 8.726562 -0.289062 7.484375 0.1875 5.890625 0.1875 C 4.878906 0.1875 3.992188 -0.03125 3.234375 -0.46875 C 2.472656 -0.90625 1.882812 -1.535156 1.46875 -2.359375 C 1.0625 -3.179688 0.859375 -4.140625 0.859375 -5.234375 C 0.859375 -6.929688 1.300781 -8.253906 2.1875 -9.203125 C 3.082031 -10.148438 4.332031 -10.625 5.9375 -10.625 C 6.9375 -10.625 7.816406 -10.40625 8.578125 -9.96875 C 9.347656 -9.53125 9.9375 -8.90625 10.34375 -8.09375 C 10.757812 -7.28125 10.96875 -6.328125 10.96875 -5.234375 Z M 10.96875 -5.234375 "/></g></g></g><g fill="#ffde59" fill-opacity="1"><g transform="translate(55.86888, 49.668555)"><g><path d="M 4.796875 0.1875 C 3.566406 0.1875 2.601562 -0.285156 1.90625 -1.234375 C 1.207031 -2.191406 0.859375 -3.507812 0.859375 -5.1875 C 0.859375 -6.894531 1.210938 -8.226562 1.921875 -9.1875 C 2.640625 -10.144531 3.617188 -10.625 4.859375 -10.625 C 6.171875 -10.625 7.175781 -10.113281 7.875 -9.09375 L 7.96875 -9.09375 C 7.820312 -9.863281 7.75 -10.554688 7.75 -11.171875 L 7.75 -14.5 L 10.59375 -14.5 L 10.59375 0 L 8.421875 0 L 7.875 -1.359375 L 7.75 -1.359375 C 7.101562 -0.328125 6.117188 0.1875 4.796875 0.1875 Z M 5.796875 -2.078125 C 6.515625 -2.078125 7.039062 -2.285156 7.375 -2.703125 C 7.71875 -3.128906 7.90625 -3.847656 7.9375 -4.859375 L 7.9375 -5.171875 C 7.9375 -6.296875 7.765625 -7.097656 7.421875 -7.578125 C 7.078125 -8.066406 6.519531 -8.3125 5.75 -8.3125 C 5.113281 -8.3125 4.617188 -8.039062 4.265625 -7.5 C 3.910156 -6.957031 3.734375 -6.175781 3.734375 -5.15625 C 3.734375 -4.132812 3.910156 -3.363281 4.265625 -2.84375 C 4.617188 -2.332031 5.128906 -2.078125 5.796875 -2.078125 Z M 5.796875 -2.078125 "/></g></g></g><g fill="#ffde59" fill-opacity="1"><g transform="translate(67.944752, 49.668555)"><g><path d="M 5.8125 -8.59375 C 5.207031 -8.59375 4.734375 -8.398438 4.390625 -8.015625 C 4.046875 -7.640625 3.847656 -7.097656 3.796875 -6.390625 L 7.796875 -6.390625 C 7.785156 -7.097656 7.601562 -7.640625 7.25 -8.015625 C 6.894531 -8.398438 6.414062 -8.59375 5.8125 -8.59375 Z M 6.203125 0.1875 C 4.523438 0.1875 3.210938 -0.273438 2.265625 -1.203125 C 1.328125 -2.128906 0.859375 -3.441406 0.859375 -5.140625 C 0.859375 -6.878906 1.296875 -8.226562 2.171875 -9.1875 C 3.046875 -10.144531 4.253906 -10.625 5.796875 -10.625 C 7.265625 -10.625 8.40625 -10.203125 9.21875 -9.359375 C 10.039062 -8.523438 10.453125 -7.367188 10.453125 -5.890625 L 10.453125 -4.5 L 3.734375 -4.5 C 3.765625 -3.695312 4.003906 -3.066406 4.453125 -2.609375 C 4.898438 -2.160156 5.53125 -1.9375 6.34375 -1.9375 C 6.96875 -1.9375 7.554688 -2 8.109375 -2.125 C 8.671875 -2.257812 9.257812 -2.46875 9.875 -2.75 L 9.875 -0.546875 C 9.375 -0.296875 8.84375 -0.113281 8.28125 0 C 7.71875 0.125 7.023438 0.1875 6.203125 0.1875 Z M 6.203125 0.1875 "/></g></g></g></svg>